<mxfile host="app.diagrams.net" agent="Mozilla/5.0 (X11; Linux x86_64; rv:143.0) Gecko/20100101 Firefox/143.0" version="28.2.4">
  <diagram name="Page-1" id="VOgsnj-lw85MplTTOe6L">
    <mxGraphModel dx="777" dy="437" grid="1" gridSize="10" guides="1" tooltips="1" connect="1" arrows="1" fold="1" page="1" pageScale="1" pageWidth="827" pageHeight="1169" math="0" shadow="0">
      <root>
        <mxCell id="0" />
        <mxCell id="1" parent="0" />
        <mxCell id="1gA_7DWGYPS09GhCwYTB-1" value="" style="verticalLabelPosition=bottom;shadow=0;dashed=0;align=center;html=1;verticalAlign=top;shape=mxgraph.electrical.logic_gates.logic_gate;operation=or;" vertex="1" parent="1">
          <mxGeometry x="180" y="80" width="100" height="60" as="geometry" />
        </mxCell>
        <mxCell id="1gA_7DWGYPS09GhCwYTB-3" value="" style="verticalLabelPosition=bottom;shadow=0;dashed=0;align=center;html=1;verticalAlign=top;shape=mxgraph.electrical.logic_gates.logic_gate;operation=and;negating=1;negSize=0.15;" vertex="1" parent="1">
          <mxGeometry x="180" y="210" width="100" height="60" as="geometry" />
        </mxCell>
        <mxCell id="1gA_7DWGYPS09GhCwYTB-4" value="" style="verticalLabelPosition=bottom;shadow=0;dashed=0;align=center;html=1;verticalAlign=top;shape=mxgraph.electrical.logic_gates.logic_gate;operation=and;" vertex="1" parent="1">
          <mxGeometry x="290" y="120" width="100" height="60" as="geometry" />
        </mxCell>
        <mxCell id="1gA_7DWGYPS09GhCwYTB-5" value="" style="verticalLabelPosition=bottom;shadow=0;dashed=0;align=center;html=1;verticalAlign=top;shape=mxgraph.electrical.logic_gates.logic_gate;operation=and;negating=1;negSize=0.15;" vertex="1" parent="1">
          <mxGeometry x="180" y="290" width="100" height="60" as="geometry" />
        </mxCell>
        <mxCell id="1gA_7DWGYPS09GhCwYTB-7" value="" style="verticalLabelPosition=bottom;shadow=0;dashed=0;align=center;html=1;verticalAlign=top;shape=mxgraph.electrical.logic_gates.logic_gate;operation=or;" vertex="1" parent="1">
          <mxGeometry x="290" y="250" width="100" height="60" as="geometry" />
        </mxCell>
        <mxCell id="1gA_7DWGYPS09GhCwYTB-8" value="" style="verticalLabelPosition=bottom;shadow=0;dashed=0;align=center;html=1;verticalAlign=top;shape=mxgraph.electrical.logic_gates.logic_gate;operation=and;" vertex="1" parent="1">
          <mxGeometry x="390" y="200" width="100" height="60" as="geometry" />
        </mxCell>
        <mxCell id="1gA_7DWGYPS09GhCwYTB-9" value="" style="verticalLabelPosition=bottom;shadow=0;dashed=0;align=center;html=1;verticalAlign=top;shape=mxgraph.electrical.logic_gates.logic_gate;operation=or;" vertex="1" parent="1">
          <mxGeometry x="490" y="150" width="100" height="60" as="geometry" />
        </mxCell>
        <mxCell id="1gA_7DWGYPS09GhCwYTB-10" style="edgeStyle=orthogonalEdgeStyle;rounded=0;orthogonalLoop=1;jettySize=auto;html=1;exitX=1;exitY=0.5;exitDx=0;exitDy=0;exitPerimeter=0;entryX=0;entryY=0.25;entryDx=0;entryDy=0;entryPerimeter=0;endArrow=none;endFill=0;" edge="1" parent="1" source="1gA_7DWGYPS09GhCwYTB-1" target="1gA_7DWGYPS09GhCwYTB-4">
          <mxGeometry relative="1" as="geometry" />
        </mxCell>
        <mxCell id="1gA_7DWGYPS09GhCwYTB-11" style="edgeStyle=orthogonalEdgeStyle;shape=connector;rounded=0;orthogonalLoop=1;jettySize=auto;html=1;exitX=1;exitY=0.5;exitDx=0;exitDy=0;exitPerimeter=0;entryX=0;entryY=0.25;entryDx=0;entryDy=0;entryPerimeter=0;strokeColor=default;align=center;verticalAlign=middle;fontFamily=Helvetica;fontSize=11;fontColor=default;labelBackgroundColor=default;endArrow=none;endFill=0;" edge="1" parent="1" source="1gA_7DWGYPS09GhCwYTB-3" target="1gA_7DWGYPS09GhCwYTB-7">
          <mxGeometry relative="1" as="geometry" />
        </mxCell>
        <mxCell id="1gA_7DWGYPS09GhCwYTB-12" style="edgeStyle=orthogonalEdgeStyle;shape=connector;rounded=0;orthogonalLoop=1;jettySize=auto;html=1;exitX=1;exitY=0.5;exitDx=0;exitDy=0;exitPerimeter=0;entryX=0;entryY=0.75;entryDx=0;entryDy=0;entryPerimeter=0;strokeColor=default;align=center;verticalAlign=middle;fontFamily=Helvetica;fontSize=11;fontColor=default;labelBackgroundColor=default;endArrow=none;endFill=0;" edge="1" parent="1" source="1gA_7DWGYPS09GhCwYTB-5" target="1gA_7DWGYPS09GhCwYTB-7">
          <mxGeometry relative="1" as="geometry" />
        </mxCell>
        <mxCell id="1gA_7DWGYPS09GhCwYTB-13" style="edgeStyle=orthogonalEdgeStyle;shape=connector;rounded=0;orthogonalLoop=1;jettySize=auto;html=1;exitX=1;exitY=0.5;exitDx=0;exitDy=0;exitPerimeter=0;entryX=0;entryY=0.75;entryDx=0;entryDy=0;entryPerimeter=0;strokeColor=default;align=center;verticalAlign=middle;fontFamily=Helvetica;fontSize=11;fontColor=default;labelBackgroundColor=default;endArrow=none;endFill=0;" edge="1" parent="1" source="1gA_7DWGYPS09GhCwYTB-7" target="1gA_7DWGYPS09GhCwYTB-8">
          <mxGeometry relative="1" as="geometry" />
        </mxCell>
        <mxCell id="1gA_7DWGYPS09GhCwYTB-14" style="edgeStyle=orthogonalEdgeStyle;shape=connector;rounded=0;orthogonalLoop=1;jettySize=auto;html=1;exitX=1;exitY=0.5;exitDx=0;exitDy=0;exitPerimeter=0;entryX=0;entryY=0.25;entryDx=0;entryDy=0;entryPerimeter=0;strokeColor=default;align=center;verticalAlign=middle;fontFamily=Helvetica;fontSize=11;fontColor=default;labelBackgroundColor=default;endArrow=none;endFill=0;" edge="1" parent="1" source="1gA_7DWGYPS09GhCwYTB-4" target="1gA_7DWGYPS09GhCwYTB-9">
          <mxGeometry relative="1" as="geometry" />
        </mxCell>
        <mxCell id="1gA_7DWGYPS09GhCwYTB-15" style="edgeStyle=orthogonalEdgeStyle;shape=connector;rounded=0;orthogonalLoop=1;jettySize=auto;html=1;exitX=1;exitY=0.5;exitDx=0;exitDy=0;exitPerimeter=0;entryX=0;entryY=0.75;entryDx=0;entryDy=0;entryPerimeter=0;strokeColor=default;align=center;verticalAlign=middle;fontFamily=Helvetica;fontSize=11;fontColor=default;labelBackgroundColor=default;endArrow=none;endFill=0;" edge="1" parent="1" source="1gA_7DWGYPS09GhCwYTB-8" target="1gA_7DWGYPS09GhCwYTB-9">
          <mxGeometry relative="1" as="geometry" />
        </mxCell>
        <mxCell id="1gA_7DWGYPS09GhCwYTB-17" value="A" style="text;html=1;align=center;verticalAlign=middle;whiteSpace=wrap;rounded=0;fontFamily=Helvetica;fontSize=11;fontColor=default;labelBackgroundColor=default;" vertex="1" parent="1">
          <mxGeometry x="80" y="80" width="20" height="30" as="geometry" />
        </mxCell>
        <mxCell id="1gA_7DWGYPS09GhCwYTB-29" style="edgeStyle=orthogonalEdgeStyle;shape=connector;rounded=0;orthogonalLoop=1;jettySize=auto;html=1;exitX=0.1;exitY=0.5;exitDx=0;exitDy=0;exitPerimeter=0;entryX=1;entryY=0.5;entryDx=0;entryDy=0;strokeColor=default;align=center;verticalAlign=middle;fontFamily=Helvetica;fontSize=11;fontColor=default;labelBackgroundColor=default;endArrow=none;endFill=0;" edge="1" parent="1" source="1gA_7DWGYPS09GhCwYTB-18" target="1gA_7DWGYPS09GhCwYTB-17">
          <mxGeometry relative="1" as="geometry" />
        </mxCell>
        <mxCell id="1gA_7DWGYPS09GhCwYTB-39" value="" style="edgeStyle=orthogonalEdgeStyle;shape=connector;rounded=0;orthogonalLoop=1;jettySize=auto;html=1;strokeColor=default;align=center;verticalAlign=middle;fontFamily=Helvetica;fontSize=11;fontColor=default;labelBackgroundColor=default;endArrow=none;endFill=0;entryX=0.502;entryY=0.085;entryDx=0;entryDy=0;entryPerimeter=0;exitX=0.502;exitY=0.911;exitDx=0;exitDy=0;exitPerimeter=0;" edge="1" parent="1" source="1gA_7DWGYPS09GhCwYTB-18" target="1gA_7DWGYPS09GhCwYTB-37">
          <mxGeometry relative="1" as="geometry" />
        </mxCell>
        <mxCell id="1gA_7DWGYPS09GhCwYTB-18" value="" style="verticalLabelPosition=bottom;shadow=0;dashed=0;align=center;html=1;verticalAlign=top;shape=mxgraph.electrical.logic_gates.inverting_contact;fontFamily=Helvetica;fontSize=11;fontColor=default;labelBackgroundColor=default;fillColor=light-dark(#000000,#FFFFFF);" vertex="1" parent="1">
          <mxGeometry x="160" y="90" width="10" height="10" as="geometry" />
        </mxCell>
        <mxCell id="1gA_7DWGYPS09GhCwYTB-19" style="edgeStyle=orthogonalEdgeStyle;shape=connector;rounded=0;orthogonalLoop=1;jettySize=auto;html=1;exitX=0.9;exitY=0.5;exitDx=0;exitDy=0;exitPerimeter=0;entryX=0;entryY=0.25;entryDx=0;entryDy=0;entryPerimeter=0;strokeColor=default;align=center;verticalAlign=middle;fontFamily=Helvetica;fontSize=11;fontColor=default;labelBackgroundColor=default;endArrow=none;endFill=0;" edge="1" parent="1" source="1gA_7DWGYPS09GhCwYTB-18" target="1gA_7DWGYPS09GhCwYTB-1">
          <mxGeometry relative="1" as="geometry" />
        </mxCell>
        <mxCell id="1gA_7DWGYPS09GhCwYTB-25" style="edgeStyle=orthogonalEdgeStyle;shape=connector;rounded=0;orthogonalLoop=1;jettySize=auto;html=1;exitX=0.1;exitY=0.5;exitDx=0;exitDy=0;exitPerimeter=0;strokeColor=default;align=center;verticalAlign=middle;fontFamily=Helvetica;fontSize=11;fontColor=default;labelBackgroundColor=default;endArrow=none;endFill=0;" edge="1" parent="1" source="1gA_7DWGYPS09GhCwYTB-20">
          <mxGeometry relative="1" as="geometry">
            <mxPoint x="100" y="124.9230769230769" as="targetPoint" />
          </mxGeometry>
        </mxCell>
        <mxCell id="1gA_7DWGYPS09GhCwYTB-20" value="" style="verticalLabelPosition=bottom;shadow=0;dashed=0;align=center;html=1;verticalAlign=top;shape=mxgraph.electrical.logic_gates.inverting_contact;fontFamily=Helvetica;fontSize=11;fontColor=default;labelBackgroundColor=default;fillColor=light-dark(#000000,#FFFFFF);" vertex="1" parent="1">
          <mxGeometry x="140" y="120" width="10" height="10" as="geometry" />
        </mxCell>
        <mxCell id="1gA_7DWGYPS09GhCwYTB-21" style="edgeStyle=orthogonalEdgeStyle;shape=connector;rounded=0;orthogonalLoop=1;jettySize=auto;html=1;exitX=0.9;exitY=0.5;exitDx=0;exitDy=0;exitPerimeter=0;entryX=0;entryY=0.75;entryDx=0;entryDy=0;entryPerimeter=0;strokeColor=default;align=center;verticalAlign=middle;fontFamily=Helvetica;fontSize=11;fontColor=default;labelBackgroundColor=default;endArrow=none;endFill=0;" edge="1" parent="1" source="1gA_7DWGYPS09GhCwYTB-20" target="1gA_7DWGYPS09GhCwYTB-1">
          <mxGeometry relative="1" as="geometry" />
        </mxCell>
        <mxCell id="1gA_7DWGYPS09GhCwYTB-26" style="edgeStyle=orthogonalEdgeStyle;shape=connector;rounded=0;orthogonalLoop=1;jettySize=auto;html=1;exitX=0.1;exitY=0.5;exitDx=0;exitDy=0;exitPerimeter=0;strokeColor=default;align=center;verticalAlign=middle;fontFamily=Helvetica;fontSize=11;fontColor=default;labelBackgroundColor=default;endArrow=none;endFill=0;" edge="1" parent="1" source="1gA_7DWGYPS09GhCwYTB-22">
          <mxGeometry relative="1" as="geometry">
            <mxPoint x="100" y="164.9230769230769" as="targetPoint" />
          </mxGeometry>
        </mxCell>
        <mxCell id="1gA_7DWGYPS09GhCwYTB-22" value="" style="verticalLabelPosition=bottom;shadow=0;dashed=0;align=center;html=1;verticalAlign=top;shape=mxgraph.electrical.logic_gates.inverting_contact;fontFamily=Helvetica;fontSize=11;fontColor=default;labelBackgroundColor=default;fillColor=light-dark(#000000,#FFFFFF);" vertex="1" parent="1">
          <mxGeometry x="120" y="160" width="10" height="10" as="geometry" />
        </mxCell>
        <mxCell id="1gA_7DWGYPS09GhCwYTB-23" style="edgeStyle=orthogonalEdgeStyle;shape=connector;rounded=0;orthogonalLoop=1;jettySize=auto;html=1;exitX=0.9;exitY=0.5;exitDx=0;exitDy=0;exitPerimeter=0;entryX=0;entryY=0.75;entryDx=0;entryDy=0;entryPerimeter=0;strokeColor=default;align=center;verticalAlign=middle;fontFamily=Helvetica;fontSize=11;fontColor=default;labelBackgroundColor=default;endArrow=none;endFill=0;" edge="1" parent="1" source="1gA_7DWGYPS09GhCwYTB-22" target="1gA_7DWGYPS09GhCwYTB-4">
          <mxGeometry relative="1" as="geometry" />
        </mxCell>
        <mxCell id="1gA_7DWGYPS09GhCwYTB-27" value="B" style="text;html=1;align=center;verticalAlign=middle;whiteSpace=wrap;rounded=0;fontFamily=Helvetica;fontSize=11;fontColor=default;labelBackgroundColor=default;" vertex="1" parent="1">
          <mxGeometry x="80" y="110" width="20" height="30" as="geometry" />
        </mxCell>
        <mxCell id="1gA_7DWGYPS09GhCwYTB-28" value="C" style="text;html=1;align=center;verticalAlign=middle;whiteSpace=wrap;rounded=0;fontFamily=Helvetica;fontSize=11;fontColor=default;labelBackgroundColor=default;" vertex="1" parent="1">
          <mxGeometry x="80" y="150" width="20" height="30" as="geometry" />
        </mxCell>
        <mxCell id="1gA_7DWGYPS09GhCwYTB-35" value="" style="edgeStyle=orthogonalEdgeStyle;shape=connector;rounded=0;orthogonalLoop=1;jettySize=auto;html=1;strokeColor=default;align=center;verticalAlign=middle;fontFamily=Helvetica;fontSize=11;fontColor=default;labelBackgroundColor=default;endArrow=none;endFill=0;entryX=0.5;entryY=0.909;entryDx=0;entryDy=0;entryPerimeter=0;exitX=0.509;exitY=0.153;exitDx=0;exitDy=0;exitPerimeter=0;" edge="1" parent="1" source="1gA_7DWGYPS09GhCwYTB-34" target="1gA_7DWGYPS09GhCwYTB-20">
          <mxGeometry relative="1" as="geometry" />
        </mxCell>
        <mxCell id="1gA_7DWGYPS09GhCwYTB-34" value="" style="verticalLabelPosition=bottom;shadow=0;dashed=0;align=center;html=1;verticalAlign=top;shape=mxgraph.electrical.logic_gates.inverting_contact;fontFamily=Helvetica;fontSize=11;fontColor=default;labelBackgroundColor=default;fillColor=light-dark(#000000,#FFFFFF);" vertex="1" parent="1">
          <mxGeometry x="140" y="250" width="10" height="10" as="geometry" />
        </mxCell>
        <mxCell id="1gA_7DWGYPS09GhCwYTB-36" style="edgeStyle=orthogonalEdgeStyle;shape=connector;rounded=0;orthogonalLoop=1;jettySize=auto;html=1;exitX=0;exitY=0.75;exitDx=0;exitDy=0;exitPerimeter=0;entryX=0.9;entryY=0.5;entryDx=0;entryDy=0;entryPerimeter=0;strokeColor=default;align=center;verticalAlign=middle;fontFamily=Helvetica;fontSize=11;fontColor=default;labelBackgroundColor=default;endArrow=none;endFill=0;" edge="1" parent="1" source="1gA_7DWGYPS09GhCwYTB-3" target="1gA_7DWGYPS09GhCwYTB-34">
          <mxGeometry relative="1" as="geometry" />
        </mxCell>
        <mxCell id="1gA_7DWGYPS09GhCwYTB-37" value="" style="verticalLabelPosition=bottom;shadow=0;dashed=0;align=center;html=1;verticalAlign=top;shape=mxgraph.electrical.logic_gates.inverting_contact;fontFamily=Helvetica;fontSize=11;fontColor=default;labelBackgroundColor=default;fillColor=light-dark(#000000,#FFFFFF);" vertex="1" parent="1">
          <mxGeometry x="160" y="190" width="10" height="10" as="geometry" />
        </mxCell>
        <mxCell id="1gA_7DWGYPS09GhCwYTB-38" style="edgeStyle=orthogonalEdgeStyle;shape=connector;rounded=0;orthogonalLoop=1;jettySize=auto;html=1;exitX=0;exitY=0.25;exitDx=0;exitDy=0;exitPerimeter=0;entryX=0.498;entryY=0.913;entryDx=0;entryDy=0;entryPerimeter=0;strokeColor=default;align=center;verticalAlign=middle;fontFamily=Helvetica;fontSize=11;fontColor=default;labelBackgroundColor=default;endArrow=none;endFill=0;" edge="1" parent="1" source="1gA_7DWGYPS09GhCwYTB-3" target="1gA_7DWGYPS09GhCwYTB-37">
          <mxGeometry relative="1" as="geometry" />
        </mxCell>
        <mxCell id="1gA_7DWGYPS09GhCwYTB-40" style="edgeStyle=orthogonalEdgeStyle;shape=connector;rounded=0;orthogonalLoop=1;jettySize=auto;html=1;exitX=0;exitY=0.25;exitDx=0;exitDy=0;exitPerimeter=0;entryX=0.9;entryY=0.5;entryDx=0;entryDy=0;entryPerimeter=0;strokeColor=default;align=center;verticalAlign=middle;fontFamily=Helvetica;fontSize=11;fontColor=default;labelBackgroundColor=default;endArrow=none;endFill=0;" edge="1" parent="1" source="1gA_7DWGYPS09GhCwYTB-8" target="1gA_7DWGYPS09GhCwYTB-37">
          <mxGeometry relative="1" as="geometry" />
        </mxCell>
        <mxCell id="1gA_7DWGYPS09GhCwYTB-41" style="edgeStyle=orthogonalEdgeStyle;shape=connector;rounded=0;orthogonalLoop=1;jettySize=auto;html=1;exitX=0;exitY=0.25;exitDx=0;exitDy=0;exitPerimeter=0;entryX=0.509;entryY=0.804;entryDx=0;entryDy=0;entryPerimeter=0;strokeColor=default;align=center;verticalAlign=middle;fontFamily=Helvetica;fontSize=11;fontColor=default;labelBackgroundColor=default;endArrow=none;endFill=0;" edge="1" parent="1" source="1gA_7DWGYPS09GhCwYTB-5" target="1gA_7DWGYPS09GhCwYTB-34">
          <mxGeometry relative="1" as="geometry" />
        </mxCell>
        <mxCell id="1gA_7DWGYPS09GhCwYTB-42" style="edgeStyle=orthogonalEdgeStyle;shape=connector;rounded=0;orthogonalLoop=1;jettySize=auto;html=1;exitX=0;exitY=0.75;exitDx=0;exitDy=0;exitPerimeter=0;entryX=0.48;entryY=0.76;entryDx=0;entryDy=0;entryPerimeter=0;strokeColor=default;align=center;verticalAlign=middle;fontFamily=Helvetica;fontSize=11;fontColor=default;labelBackgroundColor=default;endArrow=none;endFill=0;" edge="1" parent="1" source="1gA_7DWGYPS09GhCwYTB-5" target="1gA_7DWGYPS09GhCwYTB-22">
          <mxGeometry relative="1" as="geometry" />
        </mxCell>
        <mxCell id="1gA_7DWGYPS09GhCwYTB-43" value="X" style="text;html=1;align=center;verticalAlign=middle;whiteSpace=wrap;rounded=0;fontFamily=Helvetica;fontSize=11;fontColor=default;labelBackgroundColor=default;" vertex="1" parent="1">
          <mxGeometry x="590" y="165" width="20" height="25" as="geometry" />
        </mxCell>
      </root>
    </mxGraphModel>
  </diagram>
</mxfile>
